<svg xmlns="http://www.w3.org/2000/svg" viewBox="0 0 1834 1788"><defs><style>.cls-1,.cls-3{fill:#fff;}.cls-2{fill:#9a55b2;}.cls-3{font-size:1200px;font-family:Luminari-Regular, Luminari;}</style></defs><title>Ponty_logo</title><g id="Layer_3" data-name="Layer 3"><ellipse class="cls-1" cx="917" cy="894" rx="917" ry="894"/><ellipse class="cls-2" cx="922" cy="904.5" rx="885" ry="862.5"/></g><g id="Layer_2" data-name="Layer 2"><text class="cls-3" transform="translate(353 1072.65)">P</text><path class="cls-1" d="M934.68,1688q-27.81,15.12-70.11,31.38a243.79,243.79,0,0,1-88.21,16.27q-27.79,0-39.89-4.65t-12.08-18.59A35.82,35.82,0,0,1,726.2,1702a47.1,47.1,0,0,1,4.23-9.87,14.36,14.36,0,0,1,6-5.81c2.43-1.15,4.83-.18,7.26,2.91q7.24,9.3,21.74,10.45t31.42,1.17A80.09,80.09,0,0,0,842.81,1684q20.52-15.69,30.22-42.42,4.82-16.24,9.66-51.12t7.85-83.66q3-48.81,4.83-108.64t1.83-126.07q0-151-8.47-235.27t-21.74-97q-9.68-7-24.18-11a154,154,0,0,0-29.6-5.24q-15.11-1.15-29.61-1.17a178,178,0,0,0-23,1.17q-8.45,1.18-13.29-4.65c-3.23-3.87-4.83-7.74-4.83-11.62q0-20.9,15.71-20.91,8.46,0,30.2,1.75t50.16,3.48q28.39,1.76,59.8,2.91t56.79,1.17a179.36,179.36,0,0,0,58.58-9.33q27.18-9.3,56.17-21a566.62,566.62,0,0,1,63.42-21q34.41-9.33,80.34-9.34,56.76,0,106.3,9.31t85.76,28.46Q1442,892,1463.12,922.16t21.15,70.9q0,46.49-20.5,84.25a266,266,0,0,1-51.25,66.83,366.89,366.89,0,0,1-65.11,49.39q-34.37,20.34-62.1,30.8,44.73,3.5,97.93,14.52a413.09,413.09,0,0,1,99.15,33.69q45.93,22.65,76.77,59.83T1590,1425.3a196.57,196.57,0,0,1-18.74,84.24,293.48,293.48,0,0,1-50.18,74.35,441.78,441.78,0,0,1-71.95,62.72,506.7,506.7,0,0,1-84.63,48.21,520.47,520.47,0,0,1-89.46,30.8q-45.37,11-84,11-23,0-57.43-4t-70.74-10.94q-36.27-7-70.72-15.69T934.68,1688Zm120.39-741.11q-2.4,15.12-4.83,41.83t-4.83,62.13q-2.4,35.43-4.21,76.66t-3,85.36q1.2,3.49,13.27,5.24t28.39,2.9q16.29,1.15,34.41,1.74t32.6.58a395.32,395.32,0,0,0,39.84-1.74,145.57,145.57,0,0,0,29.59-5.81,141.12,141.12,0,0,0,23.54-9.87,123,123,0,0,0,21.75-15.1q20.51-15.09,38-48.79t17.51-92.93q0-41.8-12.09-73.74T1273.64,922q-19.34-21.47-44.08-31.94a130.78,130.78,0,0,0-51.32-10.46q-13.29,0-32.6,3.5a180.41,180.41,0,0,0-37.43,11A118.78,118.78,0,0,0,1075,915,63.18,63.18,0,0,0,1055.07,946.92Zm-16.89,504q1.2,60.45,3.63,87.16t4.83,40.68q3.63,19.77,17.56,38.93t36.31,35.44q22.38,16.27,52,26.15t66,9.88q38.73,0,72.63-12.77a149.68,149.68,0,0,0,58.7-40.05q24.81-27.28,39.34-70.25t14.52-103.34q0-54.57-18.17-92.9t-51.47-62.11q-33.3-23.79-80.53-34.25t-105.37-10.45q-33.92,0-64.18.48t-44.81,1.45q-1,12.81-1,26.74V1451Z" transform="translate(-51 -39)"/></g></svg>